<?xml version="1.0" encoding="iso-8859-1"?>
<!-- Generator: Adobe Illustrator 16.0.0, SVG Export Plug-In . SVG Version: 6.00 Build 0)  -->
<!DOCTYPE svg PUBLIC "-//W3C//DTD SVG 1.1//EN" "http://www.w3.org/Graphics/SVG/1.1/DTD/svg11.dtd">
<svg version="1.1" id="Capa_1" xmlns="http://www.w3.org/2000/svg" xmlns:xlink="http://www.w3.org/1999/xlink" x="0px" y="0px"
	 width="567.199px" height="567.199px" viewBox="0 0 567.199 567.199" style="enable-background:new 0 0 567.199 567.199;"
	 xml:space="preserve">
<g>
	<path d="M283.6,567.199C127.2,567.199,0,440,0,283.6C0,127.2,127.2,0,283.6,0s283.599,127.2,283.599,283.6
		C567.199,440,440,567.199,283.6,567.199z M283.6,85.7C174.5,85.7,85.7,174.5,85.7,283.6s88.8,197.9,197.9,197.9
		c109.099,0,197.9-88.801,197.9-197.9S392.699,85.7,283.6,85.7z M373.199,243.1c5.102,0,9.701-2.1,13-5.4c3.301-3.3,5.4-7.9,5.4-13
		c0-10.1-8.199-18.4-18.4-18.4c-23.199,0-45.699,4.8-66.398,13.8L279,192.3c12.1-3.7,24.9-5.6,37.9-5.6c5.1,0,9.699-2.1,13-5.4
		c3.299-3.3,5.4-7.9,5.4-13c0-10.1-8.201-18.4-18.4-18.4c-23.4,0-45.9,4.9-66.7,14c-24-21.7-61-21.2-84.2,1.9
		c-23.2,23.2-23.7,60.2-1.9,84.2c-9.1,20.8-14,43.301-14,66.699c0,10.102,8.2,18.4,18.4,18.4c10.1,0,18.4-8.199,18.4-18.4
		c0-13,1.9-25.799,5.6-37.899l27.8,27.799c-9,20.701-13.8,43.201-13.8,66.4c0,10.1,8.2,18.4,18.3,18.4c10.1,0,18.4-8.201,18.4-18.4
		c0-13,1.9-25.801,5.6-37.9l27.8,27.801c-9,20.699-13.8,43.199-13.8,66.4c0,10.1,8.2,18.398,18.4,18.398
		c10.101,0,18.399-8.199,18.399-18.398c0-13,1.9-25.801,5.6-37.9l9.602,9.6c23.898,23.9,62.6,23.9,86.5,0
		c23.898-23.9,23.898-62.699,0-86.5l-9.701-9.6c12.1-3.701,24.9-5.6,37.9-5.6c5.1,0,9.699-2.102,13-5.4c3.301-3.301,5.4-7.9,5.4-13
		c0-10.1-8.201-18.4-18.4-18.4c-23.199,0-45.699,4.8-66.4,13.8l-27.799-27.8C347.4,245,360.1,243.1,373.199,243.1z"/>
</g>
<g>
</g>
<g>
</g>
<g>
</g>
<g>
</g>
<g>
</g>
<g>
</g>
<g>
</g>
<g>
</g>
<g>
</g>
<g>
</g>
<g>
</g>
<g>
</g>
<g>
</g>
<g>
</g>
<g>
</g>
</svg>
