<?xml version="1.0" encoding="iso-8859-1"?>
<!-- Generator: Adobe Illustrator 16.0.0, SVG Export Plug-In . SVG Version: 6.00 Build 0)  -->
<!DOCTYPE svg PUBLIC "-//W3C//DTD SVG 1.1//EN" "http://www.w3.org/Graphics/SVG/1.1/DTD/svg11.dtd">
<svg version="1.1" id="Capa_1" xmlns="http://www.w3.org/2000/svg" xmlns:xlink="http://www.w3.org/1999/xlink" x="0px" y="0px"
	 width="576.9px" height="576.9px" viewBox="0 0 576.9 576.9" style="enable-background:new 0 0 576.9 576.9;" xml:space="preserve"
	>
<g>
	<path d="M127.45,333.2c0,6-4.9,10.8-11,10.8h-62.3c-6.8,0-12.2-5.4-12.2-12.2v-86.6c0-6.8,5.4-12.2,12.2-12.2h61.6
		c6,0,11,4.9,11,10.9s-4.9,10.8-11,10.8h-49.5v22.5h42.4c6,0,10.9,4.9,10.9,11c0,6-4.9,10.8-10.9,10.8h-42.4v23.3h50.3
		C122.55,322.3,127.45,327.2,127.45,333.2z M226.85,313.2v0.3c0,20.3-16.5,30.5-41.6,30.5h-40.6c-6.8,0-12.2-5.4-12.2-12.2v-86.6
		c0-6.8,5.4-12.2,12.2-12.2h39.4c12.7,0,22.7,3.5,29,9.8c5.1,5.1,7.6,11.3,7.6,18.9v0.3c0,12.5-6.7,19.5-14.6,24
		C218.95,290.9,226.85,298.3,226.85,313.2z M156.25,277.9h22.5c10.8,0,17.6-3.5,17.6-11.7v-0.3c0-7.3-5.7-11.4-16-11.4h-24.1V277.9
		L156.25,277.9z M202.55,310.2c0-7.5-5.6-12.101-18.1-12.101h-28.2v24.4h29c10.8,0,17.3-3.8,17.3-12.1V310.2L202.55,310.2z
		 M492.35,492.4c-54.4,54.5-126.9,84.5-203.9,84.5c-77,0-149.5-30-203.9-84.5C-27.95,380-27.95,197,84.55,84.5
		C139.05,30,211.45,0,288.45,0c77.099,0,149.5,30,203.9,84.5C604.85,197,604.85,380,492.35,492.4z M553.25,333.2
		c0-4.101-0.899-8.2-2.8-12.4l-38.7-87.5c-5.8-12.8-17.3-20.5-30.899-20.5h-1.4c-9.9,0-18.6,4-24.9,11.1
		c-8.699-22.4-21.899-43.5-40-61.5c-33.699-33.7-78.399-52.2-126.099-52.2c-28.6,0-56.1,6.8-80.9,19.5l83.499,83.5
		c-1.899-0.1-3.699-0.5-5.599-0.5c-21.8,0-41.3,8.4-55.2,22.2c-1.3-1.7-2.6-3.5-4.2-5.1c-10-9.9-24.5-15.2-42-15.2H54.15
		c-16.9,0-30.6,13.7-30.6,30.6v86.6c0,16.9,13.7,30.601,30.6,30.601h62.4c3.2,0,6.2-0.7,9.1-1.7c8.6,19.5,20.8,37.8,36.8,53.8
		c33.7,33.7,78.4,52.2,126,52.2c28.599,0,56.099-6.8,80.9-19.5l-83.1-83.101c19-0.3,36.2-6.899,49.4-17.899
		c5.2,9.5,15.2,16.1,26.8,16.1h57.4c35.699,0,41.899-11.7,44.5-17.8l3-7.1h24.6l2.8,6.399c5.3,12.2,16,19.4,28.5,19.4
		C539.85,363.3,553.25,349.8,553.25,333.2z M285.15,272c-10.3,0-15,8.4-15,16.2c0,8.5,5.3,16.899,15.3,16.899
		c10.299,0,15-8.399,15-16.199C300.45,280.3,295.15,272,285.15,272z M533.65,328.3c0.8,1.7,1.3,3.3,1.3,4.9
		c0,6.5-5.1,11.7-11.6,11.7c-5.7,0-9.5-3.301-11.7-8.4l-7.5-17.5h-48.8l-7.801,18.2c-2.1,4.8-6.199,7.6-11.199,7.6
		c-3.5,0-6.5-1.7-8.601-4.1c-2,2-4.7,3.2-7.8,3.2h-57.5c-6.8,0-12.2-5.4-12.2-12.2v-87.6c0-6.8,5.4-12.2,12.2-12.2
		s12.2,5.4,12.2,12.2v77.6h45.2c3.1,0,5.899,1.3,7.899,3.3l37.3-84.2c2.7-6,7.601-9.7,14.301-9.7h1.399c6.7,0,11.4,3.6,14.101,9.7
		L533.65,328.3z M495.15,297.5l-15.4-36.6l-15.399,36.6H495.15L495.15,297.5z M344.25,288.2v0.3c0,31.6-24.899,57.4-59.199,57.4
		c-34.3,0-58.9-25.5-58.9-57.101v-0.3c0-31.6,24.9-57.4,59.2-57.4C319.75,231.1,344.25,256.6,344.25,288.2z M318.75,288.5
		c0-19-14-34.9-33.599-34.9c-19.7,0-33.3,15.5-33.3,34.6v0.3c0,19,14,34.9,33.6,34.9c19.7,0,33.299-15.601,33.299-34.601V288.5z"/>
</g>
<g>
</g>
<g>
</g>
<g>
</g>
<g>
</g>
<g>
</g>
<g>
</g>
<g>
</g>
<g>
</g>
<g>
</g>
<g>
</g>
<g>
</g>
<g>
</g>
<g>
</g>
<g>
</g>
<g>
</g>
</svg>
