<?xml version="1.0" encoding="iso-8859-1"?>
<!-- Generator: Adobe Illustrator 16.0.0, SVG Export Plug-In . SVG Version: 6.00 Build 0)  -->
<!DOCTYPE svg PUBLIC "-//W3C//DTD SVG 1.1//EN" "http://www.w3.org/Graphics/SVG/1.1/DTD/svg11.dtd">
<svg version="1.1" id="Capa_1" xmlns="http://www.w3.org/2000/svg" xmlns:xlink="http://www.w3.org/1999/xlink" x="0px" y="0px"
	 width="569.449px" height="569.449px" viewBox="0 0 569.449 569.449" style="enable-background:new 0 0 569.449 569.449;"
	 xml:space="preserve">
<g>
	<path d="M561.125,312.824c11.1,11.101,11.1,29.101,0,40.2l-205,205c-11.101,11.101-29.101,11.101-40.2,0
		c-11.101-11.1-11.101-29.1,0-40.2l79.2-79.199l-36.4-36.5l-79.2,79.199c-11.1,11.101-29.1,11.101-40.2,0
		c-11.1-11.1-11.1-29.1,0-40.199l12.1-12.101l-219.2-219.3c-22.2-22.2-22.2-58.3,0-80.5l26.8-26.8l-50.7-50.801
		c-11.1-11.1-11.1-29.1,0-40.199c11.1-11.101,29.1-11.101,40.2,0l50.7,50.699l26.8-26.8c10.7-10.7,25.1-16.7,40.2-16.7
		s29.6,6,40.3,16.7l219.2,219.2l18.4-18.5c11.1-11.1,29.1-11.1,40.199,0c11.101,11.1,11.101,29.1,0,40.2l-85.5,85.5l36.5,36.5
		l85.5-85.5C532.024,301.725,550.024,301.725,561.125,312.824z"/>
</g>
<g>
</g>
<g>
</g>
<g>
</g>
<g>
</g>
<g>
</g>
<g>
</g>
<g>
</g>
<g>
</g>
<g>
</g>
<g>
</g>
<g>
</g>
<g>
</g>
<g>
</g>
<g>
</g>
<g>
</g>
</svg>
