<?xml version="1.0" encoding="iso-8859-1"?>
<!-- Generator: Adobe Illustrator 16.0.0, SVG Export Plug-In . SVG Version: 6.00 Build 0)  -->
<!DOCTYPE svg PUBLIC "-//W3C//DTD SVG 1.1//EN" "http://www.w3.org/Graphics/SVG/1.1/DTD/svg11.dtd">
<svg version="1.1" id="Capa_1" xmlns="http://www.w3.org/2000/svg" xmlns:xlink="http://www.w3.org/1999/xlink" x="0px" y="0px"
	 width="549.5px" height="549.5px" viewBox="0 0 549.5 549.5" style="enable-background:new 0 0 549.5 549.5;" xml:space="preserve"
	>
<g>
	<path d="M477.499,334.2V202.8C477.499,91,386.499,0,274.7,0C162.9,0,71.9,91,71.9,202.8v131.4C33.1,355.5,6.8,396.7,6.8,444v58.8
		c0,25.8,20.9,46.7,46.8,46.7h442.3c25.801,0,46.801-20.9,46.801-46.7V444C542.601,396.7,516.3,355.5,477.499,334.2z M274.7,419.399
		c-40,0-72.4-32.399-72.4-72.399s32.4-72.4,72.4-72.4c40,0,72.401,32.4,72.401,72.4C346.999,387,314.7,419.399,274.7,419.399z
		 M349.2,220.7h-149c-26.1,0-47.3-21.2-47.3-47.3s21.2-47.3,47.3-47.3h149c26.1,0,47.299,21.2,47.299,47.3S375.3,220.7,349.2,220.7z
		"/>
</g>
<g>
</g>
<g>
</g>
<g>
</g>
<g>
</g>
<g>
</g>
<g>
</g>
<g>
</g>
<g>
</g>
<g>
</g>
<g>
</g>
<g>
</g>
<g>
</g>
<g>
</g>
<g>
</g>
<g>
</g>
</svg>
