<?xml version="1.0" encoding="iso-8859-1"?>
<!-- Generator: Adobe Illustrator 16.0.0, SVG Export Plug-In . SVG Version: 6.00 Build 0)  -->
<!DOCTYPE svg PUBLIC "-//W3C//DTD SVG 1.1//EN" "http://www.w3.org/Graphics/SVG/1.1/DTD/svg11.dtd">
<svg version="1.1" id="Capa_1" xmlns="http://www.w3.org/2000/svg" xmlns:xlink="http://www.w3.org/1999/xlink" x="0px" y="0px"
	 width="573.096px" height="573.096px" viewBox="0 0 573.096 573.096" style="enable-background:new 0 0 573.096 573.096;"
	 xml:space="preserve">
<g>
	<path d="M143.348,38.249c-136.9,79-184,254.6-105.1,391.5c78.9,136.899,254.6,184,391.5,105.1c136.899-79,184-254.6,105.1-391.5
		C455.848,6.448,280.249-40.652,143.348,38.249z M386.949,112.749l-69.4,120.2c-18.6-10.7-42.1-11.8-62.1-0.3l-69.3-120.2
		C250.448,75.348,326.848,78.148,386.949,112.749z M85.848,286.448h138.8c0,10.601,2.4,21.301,8.1,31.101
		c5.7,9.8,13.7,17.3,22.9,22.6l-69.4,120.101c-29.6-17.101-55.4-41.7-73.6-73.4C94.249,355.249,85.749,320.648,85.848,286.448z
		 M386.949,460.648l-69.301-120.199c19.9-11.5,30.801-32.4,30.9-53.9h138.8C487.148,356.048,451.249,423.548,386.949,460.648z"/>
</g>
<g>
</g>
<g>
</g>
<g>
</g>
<g>
</g>
<g>
</g>
<g>
</g>
<g>
</g>
<g>
</g>
<g>
</g>
<g>
</g>
<g>
</g>
<g>
</g>
<g>
</g>
<g>
</g>
<g>
</g>
</svg>
