<?xml version="1.0" encoding="iso-8859-1"?>
<!-- Generator: Adobe Illustrator 16.0.0, SVG Export Plug-In . SVG Version: 6.00 Build 0)  -->
<!DOCTYPE svg PUBLIC "-//W3C//DTD SVG 1.1//EN" "http://www.w3.org/Graphics/SVG/1.1/DTD/svg11.dtd">
<svg version="1.1" id="Capa_1" xmlns="http://www.w3.org/2000/svg" xmlns:xlink="http://www.w3.org/1999/xlink" x="0px" y="0px"
	 width="592.94px" height="592.94px" viewBox="0 0 592.94 592.94" style="enable-background:new 0 0 592.94 592.94;"
	 xml:space="preserve">
<g>
	<path d="M281.719,323.54c-0.5-1.6-1.6-3-3.2-3.8l-112.2-55.1c-2.1-1-4.6-0.801-6.4,0.6c-1.8,1.4-2.8,3.7-2.3,6
		c13,69.5,34.1,104.7,62.8,104.7c32.1,0,59.5-45.7,60.7-47.6C282.019,326.94,282.219,325.141,281.719,323.54z M214.719,341.641
		c-7.9,0-14.3-6.4-14.3-14.3c0-7.9,6.4-14.301,14.3-14.301c7.9,0,14.3,6.4,14.3,14.301
		C228.918,335.24,222.519,341.641,214.719,341.641z M319.818,396.841c0,4.199-0.7,8.3-2.1,12.3c-0.8,2.5-3.2,4.1-5.8,4.1l0,0
		c-2.601,0-4.9-1.7-5.801-4.1c-1.899-5.4-5.399-9-8.899-9s-7,3.5-8.9,9c-0.8,2.399-3.2,4.1-5.8,4.1l0,0c-2.6,0-4.9-1.7-5.8-4.1
		c-1.4-4-2.1-8.101-2.1-12.3c0-16.5,9.9-29.5,22.5-29.5S319.818,380.341,319.818,396.841z M566.719,208.04l-43.3-24.5l14.1-36.5
		c1.1-2.899-0.1-6.2-2.8-7.6l-73-38.8c-37.7-96.301-42.601-96.301-47.4-96.301c-2.5,0-5.3,2-6.2,4.301c-2,5-13.1,28.3-21.6,46
		l-15.1-29c-0.801-1.601-2.301-2.7-4.101-3.101c-1.7-0.399-3.6,0-5,1.101l-33.6,24.8l-103.8-47.9c-2.3-1-4.9-0.6-6.7,1.101
		c-1.8,1.699-2.4,4.3-1.6,6.6l17.6,47.5l-177.7-1.6c-2.9-0.101-4.6,1.399-5.6,3.6s-0.6,4.8,0.9,6.6l49.1,56.301l-74.4,37.899
		c-2.3,1.2-3.6,3.601-3.3,6.101c0.3,2.5,2.1,4.6,4.6,5.3l45.7,11.7l-39,40.3c-1.8,1.899-2.2,4.7-1.1,7c1.2,2.3,3.7,3.7,6.3,3.3
		l38.8-5.1c-27.5,19.5-44.4,52.699-44.4,93.7c0,47.8,22.7,85.199,58.7,102.399c24.8,86.7,106,169.7,204.4,169.7
		c98.399,0,179.7-82.9,204.399-169.7c36.101-17.2,58.7-54.7,58.7-102.399c0-36.7-13.5-67.2-36.1-87.2l41.399-14.5
		c2.301-0.801,3.801-2.801,4.101-5.2C570.019,211.54,568.818,209.24,566.719,208.04z M453.818,372.44c-1.899,0-3.7-0.3-5.5-0.5
		c-1.1,68.5-68.2,159.8-151,159.8s-149.9-91.3-151-159.8c-1.8,0.2-3.6,0.5-5.6,0.5c-31.3,0-45.4-23.1-45.4-51.6
		c0-28.501,14.1-51.601,45.4-51.601c1.9,0,3.6,0.3,5.4,0.5v-19.9h74.6c3,0,5.6-2.199,6.1-5.3l6.2-43.7l34.4,34.4
		c1.8,1.8,4.4,2.3,6.7,1.3c2.3-0.899,3.8-3.2,3.8-5.6v-47.8l52.8,33.8c1.899,1.3,4.399,1.3,6.399,0.1s3.101-3.3,3-5.7l-2.3-37.6
		l57.4,52.1c1.7,1.5,4.1,2,6.3,1.2s3.7-2.8,3.9-5.1l4.6-47.4l38.3,61.7v33.4c1.8-0.2,3.601-0.5,5.4-0.5
		c31.3,0,45.399,23.1,45.399,51.6C499.219,349.341,485.219,372.44,453.818,372.44z M433.618,251.04c-12.5-3.5-24.399-5.3-35.5-5.3
		c-68.8,0-84.199,68.4-84.399,69.101c-0.601,2.6,0.6,5.3,2.899,6.6c20.9,12.1,39.7,18.2,56,18.2c48.4,0,63.9-53.801,65.301-82.301
		C438.219,254.44,436.318,251.84,433.618,251.04z M374.818,318.141c-7.899,0-14.3-6.4-14.3-14.3c0-7.9,6.4-14.301,14.3-14.301
		c7.9,0,14.3,6.4,14.3,14.301C389.118,311.74,382.719,318.141,374.818,318.141z"/>
</g>
<g>
</g>
<g>
</g>
<g>
</g>
<g>
</g>
<g>
</g>
<g>
</g>
<g>
</g>
<g>
</g>
<g>
</g>
<g>
</g>
<g>
</g>
<g>
</g>
<g>
</g>
<g>
</g>
<g>
</g>
</svg>
